<svg id="Layer_1" data-name="Layer 1" xmlns="http://www.w3.org/2000/svg" viewBox="0 0 418.31 80.16"><defs><style>.cls-1{fill:#005865;}</style></defs><g id="Layer_2" data-name="Layer 2"><g id="Layer_1-2" data-name="Layer 1-2"><path class="cls-1" d="M60.56,9.88A31.5,31.5,0,0,0,49,2.47,41.19,41.19,0,0,0,34.58,0H0V80.15H34.58a38.4,38.4,0,0,0,16-3.09,31.66,31.66,0,0,0,11.34-8.47,35.53,35.53,0,0,0,6.79-12.8A55.24,55.24,0,0,0,71,39.63a50,50,0,0,0-2.75-17.4A34.25,34.25,0,0,0,60.56,9.88ZM51.64,52.54A20.64,20.64,0,0,1,47.15,60a16.26,16.26,0,0,1-6.4,4.1,22.76,22.76,0,0,1-7.41,1.23H17.63V14.82H30.2a28.38,28.38,0,0,1,10.94,1.85A17,17,0,0,1,48.27,22a21.65,21.65,0,0,1,3.87,8.37,46.31,46.31,0,0,1,1.18,10.94A33,33,0,0,1,51.64,52.54Z"/><path class="cls-1" d="M194.51,27.21a15.49,15.49,0,0,0-6.45-4.83,27.06,27.06,0,0,0-10.5-1.74H144.33V80.15h15.94V32.58h12.35c3.82,0,6.47,1.18,8,3.53s2.24,5.94,2.24,10.72V80.15H198.8V44.55a46.3,46.3,0,0,0-1-9.82A18.74,18.74,0,0,0,194.51,27.21Z"/><path class="cls-1" d="M264.75,40.48c-1.59-8.6-5.21-14.55-12.6-18.52-10.61-5.47-26.21-3-34.35,5.95-10.83,11.16-11.06,32.34-.22,43.83,5.56,5.85,15.36,8.44,23.76,8.42h19.4v-12H242.3c-9.52,0-16.1-3.8-16.75-13.52h40.2A86,86,0,0,0,264.75,40.48Zm-39.2,4c.26-7,5.72-13.39,13.25-13.39,10.31,0,11.69,10.18,11.86,13.39Z"/><path class="cls-1" d="M358.46,40.48c-1.59-8.6-5.21-14.55-12.59-18.52-10.61-5.47-26.21-3-34.35,5.95-10.84,11.16-11.06,32.34-.23,43.83,5.56,5.85,15.37,8.44,23.77,8.42h19.4v-12H336c-9.51,0-16.1-3.8-16.75-13.52h40.2A86,86,0,0,0,358.46,40.48Zm-39.2,4c.26-7,5.73-13.39,13.25-13.39,10.32,0,11.69,10.18,11.87,13.39Z"/><path class="cls-1" d="M402,32.58h16.35V20.64H401c-8.4,0-18.2,2.58-23.77,8.42a29.59,29.59,0,0,0-8,21.15,30.52,30.52,0,0,0,8,21.54c5.57,5.85,15.37,8.44,23.77,8.42h17.3v-12H402c-9.49,0-16.72-5.55-16.74-17.93S392.47,32.58,402,32.58Z"/><rect class="cls-1" x="277.47" width="15.94" height="80.15"/><path class="cls-1" d="M130.55,37.08c.27-13.65-12.41-16.61-23.31-16.49H85v12h22.57c3.15,0,4.47.7,5.72,2.07a5.75,5.75,0,0,1,.52,6.55A6.17,6.17,0,0,1,110,44a39.34,39.34,0,0,1-6.81,1.38c-4.5.68-9.51,1.38-13.18,2.36-7.76,2.09-12.75,8.74-11.7,16.63C79.79,75.48,89.53,80.15,100,80.15H130.6V37.08h0Zm-16,32.07H103.93c-3.87,0-8.85-1.07-9.64-5.93-.65-4,1.36-6.29,5-7.18,4.52-1.12,8.56-1.31,12.91-2.86a6.6,6.6,0,0,0,2.43-1.41Z"/></g></g></svg>